<svg width="64" height="64" viewBox="0 0 64 64" fill="none" xmlns="http://www.w3.org/2000/svg">
<g clip-path="url(#clip0_2_6)">
<path d="M31.9999 0C24.4014 0.000318011 17.051 2.72944 11.2639 7.69904C5.47675 12.6686 1.63048 19.5544 0.413311 27.1243C-0.803858 34.6942 0.6875 42.4543 4.62053 49.0159C8.55357 55.5776 15.5 60.5 22.4136 62.5C24.0136 62.7827 24.08 62.252 24.08 61.4041C24.08 60.6371 24.04 58.0937 24.04 55.3888C16 56.8825 13.92 53.4108 13.28 51.5941C12.5698 49.8272 11.4441 48.2614 10 47.0321C8.88003 46.4265 7.28004 44.9328 9.95999 44.8925C10.9833 45.0046 11.9648 45.3639 12.8212 45.9402C13.6777 46.5164 14.3839 47.2926 14.88 48.2028C15.3176 48.9963 15.9062 49.6949 16.6118 50.2585C17.3174 50.8221 18.1263 51.2396 18.9921 51.4871C19.8578 51.7346 20.7635 51.8073 21.6571 51.7009C22.5508 51.5946 23.4149 51.3113 24.1999 50.8673C24.3384 49.2254 25.0634 47.6903 26.2399 46.5477C19.12 45.7403 11.68 42.9546 11.68 30.6012C11.635 27.3914 12.8086 24.2859 14.96 21.9215C13.9817 19.1318 14.0962 16.0702 15.28 13.3629C15.28 13.3629 17.9599 12.515 24.0799 16.6733C29.316 15.2198 34.8437 15.2198 40.0798 16.6733C46.1997 12.4747 48.8797 13.3629 48.8797 13.3629C50.0637 16.0702 50.1782 19.1318 49.1997 21.9215C51.3576 24.2818 52.5322 27.3901 52.4797 30.6012C52.4797 42.995 44.9997 45.7403 37.8798 46.5477C38.6435 47.3289 39.2317 48.2669 39.6044 49.2978C39.9771 50.3288 40.1256 51.4286 40.0398 52.5226C40.0398 56.8424 39.9998 60.3141 39.9998 61.4042C39.9998 62.252 40.4 62.823 42 62.5C49.1957 60.0547 55.4959 55.5464 59.4122 48.9813C63.3285 42.4163 64.8057 34.6603 63.5801 27.0977C62.3545 19.5351 58.5058 12.6583 52.7212 7.69473C46.9366 2.73117 39.5925 0.00398834 31.9999 0Z" fill="black"/>
<path d="M32.0001 64C39.5986 63.9997 46.949 61.2712 52.7361 56.3027C58.5233 51.3342 62.3695 44.45 63.5867 36.8818C64.8039 29.3136 63.3125 21.5553 59.3795 14.9951C55.4464 8.43496 48.5 3.51364 41.5864 1.51409C39.9864 1.23149 39.92 1.76208 39.92 2.60977C39.92 3.37661 39.9601 5.91944 39.9601 8.62364C48 7.13029 51.36 8.68372 52 10.5C52.7102 12.2665 54.0559 11.2954 55.5 12.5245C56.62 13.1299 61.1799 17.9597 58.5 18C57.4767 17.888 56.3565 14.329 55.5 13.7529C54.6435 13.1767 50.9961 9.84591 50.5 8.93587C50.0623 8.14252 48.2056 8.68076 47.5 8.11731C46.7944 7.55386 45.3658 8.30357 44.5 8.05611C43.6342 7.80865 42.48 8.82954 41.5864 8.93587C40.6927 9.0422 51.785 11.5561 51 12C50.8615 13.6415 54.6765 20.8577 53.5 22C60.6199 22.8072 55.5 20.1494 55.5 32.5C55.545 35.7091 58.1514 40.1362 56 42.5C56.9783 45.2891 49.9038 47.9334 48.72 50.6402C48.72 50.6402 46.0801 64.1573 39.9601 60C34.724 61.4531 29.2361 61.4531 24 60C17.8801 64.1976 10.5 52.5 10.5 52.5C9.31602 49.7933 5.52155 44.2891 6.5 41.5C4.34213 39.1402 11.4678 36.6161 11.5203 33.4057C11.5203 21.0147 10.3801 10.3072 17.5 9.5C16.7363 8.71897 24.7683 15.744 24.3956 14.7133C24.0229 13.6826 23.8744 12.583 23.9602 11.4892C23.9602 7.17046 24.0002 3.69947 24.0002 2.60964C24.0002 1.76201 24.1 1.1912 22.5 1.51409C15.3043 3.95883 8.50409 8.46617 4.58781 15.0297C0.671528 21.5932 -0.805655 29.3475 0.419949 36.9084C1.64555 44.4693 5.49417 51.3446 11.2788 56.307C17.0634 61.2694 24.4075 63.996 32.0001 64Z" fill="black"/>
</g>
<defs>
<clipPath id="clip0_2_6">
<rect width="64" height="64" fill="white"/>
</clipPath>
</defs>
</svg>
