<svg width="64" height="64" viewBox="0 0 64 64" fill="none" xmlns="http://www.w3.org/2000/svg">
<g clip-path="url(#clip0_2_2)">
<path d="M35.1881 28.3074H35.2371V28.2303L35.1881 28.3074ZM35.1881 28.3074H35.2371V28.2303L35.1881 28.3074ZM35.1881 28.3074H35.2371V28.2303L35.1881 28.3074ZM35.1881 28.3074H35.2371V28.2303L35.1881 28.3074ZM35.1881 28.3074H35.2371V28.2303L35.1881 28.3074ZM35.1881 28.3074H35.2371V28.2303L35.1881 28.3074ZM35.1881 28.3074H35.2371V28.2303L35.1881 28.3074ZM35.1881 28.3074H35.2371V28.2303L35.1881 28.3074ZM35.1881 28.3074H35.2371V28.2303L35.1881 28.3074ZM35.1881 28.3074H35.2371V28.2303L35.1881 28.3074ZM35.1881 28.3074H35.2371V28.2303L35.1881 28.3074ZM35.1881 28.3074H35.2371V28.2303L35.1881 28.3074ZM35.1881 28.3074H35.2371V28.2303L35.1881 28.3074ZM35.1881 28.3074H35.2371V28.2303L35.1881 28.3074ZM35.1881 28.3074H35.2371V28.2303L35.1881 28.3074ZM35.1881 28.3074H35.2371V28.2303L35.1881 28.3074ZM32 0C25.671 0 19.4841 1.87677 14.2218 5.39297C8.95939 8.90918 4.85787 13.9069 2.43587 19.7541C0.0138648 25.6014 -0.619841 32.0355 0.614885 38.2429C1.84961 44.4503 4.89732 50.1521 9.3726 54.6274C13.8479 59.1027 19.5497 62.1504 25.7571 63.3851C31.9645 64.6198 38.3986 63.9861 44.2459 61.5641C50.0931 59.1421 55.0908 55.0406 58.607 49.7782C62.1232 44.5159 64 38.329 64 32C63.9907 23.5159 60.6163 15.382 54.6172 9.38282C48.618 3.38367 40.4841 0.00927324 32 0ZM23.9983 46.4059C23.9964 46.5478 23.9388 46.6833 23.8378 46.7829C23.7368 46.8826 23.6006 46.9385 23.4587 46.9385H17.2928C17.1515 46.9385 17.0161 46.8824 16.9162 46.7825C16.8164 46.6826 16.7602 46.5472 16.7602 46.4059V25.6869C16.7593 25.6164 16.7724 25.5464 16.7988 25.4809C16.8251 25.4155 16.8642 25.356 16.9137 25.3058C16.9633 25.2556 17.0223 25.2157 17.0873 25.1886C17.1524 25.1614 17.2222 25.1473 17.2928 25.1474H23.4587C23.5296 25.1474 23.5997 25.1613 23.6652 25.1884C23.7307 25.2155 23.7901 25.2553 23.8402 25.3054C23.8903 25.3555 23.9301 25.415 23.9572 25.4804C23.9843 25.5459 23.9983 25.616 23.9983 25.6869V46.4059ZM20.1585 22.3797C19.3922 22.3797 18.643 22.1524 18.0058 21.7267C17.3686 21.3009 16.872 20.6957 16.5787 19.9877C16.2855 19.2797 16.2087 18.5006 16.3582 17.749C16.5077 16.9974 16.8768 16.307 17.4187 15.7651C17.9606 15.2232 18.651 14.8541 19.4026 14.7046C20.1542 14.5551 20.9333 14.6318 21.6413 14.9251C22.3494 15.2184 22.9545 15.715 23.3803 16.3522C23.806 16.9894 24.0333 17.7386 24.0333 18.5049C24.0342 19.014 23.9346 19.5183 23.7402 19.9888C23.5458 20.4593 23.2605 20.8869 22.9005 21.2468C22.5405 21.6068 22.113 21.8922 21.6424 22.0866C21.1719 22.281 20.6676 22.3806 20.1585 22.3797ZM50.0915 46.4059C50.0897 46.5478 50.032 46.6833 49.9311 46.7829C49.8301 46.8826 49.6939 46.9385 49.552 46.9385H43.386C43.3161 46.9385 43.2469 46.9247 43.1823 46.8979C43.1176 46.8712 43.0589 46.8319 43.0095 46.7825C42.96 46.733 42.9208 46.6743 42.8941 46.6097C42.8673 46.5451 42.8535 46.4759 42.8535 46.4059V35.2722C42.8535 32.3433 41.8095 30.3674 39.189 30.3674C38.3724 30.372 37.5772 30.6289 36.9124 31.1031C36.2476 31.5773 35.7456 32.2454 35.4754 33.016C35.2907 33.5855 35.21 34.1836 35.2371 34.7817V46.4059C35.2371 46.549 35.1803 46.6863 35.0791 46.7874C34.9779 46.8886 34.8407 46.9455 34.6976 46.9455H28.5316C28.4611 46.9455 28.3913 46.9315 28.3262 46.9043C28.2612 46.8771 28.2021 46.8372 28.1526 46.787C28.1031 46.7368 28.064 46.6773 28.0376 46.6119C28.0113 46.5465 27.9982 46.4765 27.9991 46.4059C27.9991 43.4491 28.0762 29.0922 27.9991 25.7149C27.9982 25.6444 28.0113 25.5744 28.0376 25.509C28.064 25.4436 28.1031 25.384 28.1526 25.3338C28.2021 25.2836 28.2612 25.2438 28.3262 25.2166C28.3913 25.1894 28.4611 25.1754 28.5316 25.1754H34.6836C34.7547 25.1744 34.8253 25.1878 34.8912 25.2145C34.9571 25.2413 35.0169 25.281 35.0672 25.3313C35.1175 25.3816 35.1572 25.4414 35.184 25.5073C35.2108 25.5732 35.2241 25.6438 35.2231 25.7149V28.2584C35.8785 27.1206 36.833 26.1841 37.983 25.5505C39.133 24.9168 40.4345 24.6102 41.7464 24.6639C46.5041 24.6639 50.0775 27.7749 50.0775 34.4734L50.0915 46.4059ZM35.2371 28.3284V28.2514L35.1881 28.3284H35.2371ZM35.1881 28.3284H35.2371V28.2514L35.1881 28.3284ZM35.1881 28.3284H35.2371V28.2514L35.1881 28.3284ZM35.1881 28.3284H35.2371V28.2514L35.1881 28.3284ZM35.1881 28.3284H35.2371V28.2514L35.1881 28.3284ZM35.1881 28.3284H35.2371V28.2514L35.1881 28.3284ZM35.1881 28.3284H35.2371V28.2514L35.1881 28.3284ZM35.1881 28.3284H35.2371V28.2514L35.1881 28.3284ZM35.1881 28.3284H35.2371V28.2514L35.1881 28.3284ZM35.1881 28.3284H35.2371V28.2514L35.1881 28.3284ZM35.1881 28.3284H35.2371V28.2514L35.1881 28.3284ZM35.1881 28.3284H35.2371V28.2514L35.1881 28.3284ZM35.1881 28.3284H35.2371V28.2514L35.1881 28.3284ZM35.1881 28.3284H35.2371V28.2514L35.1881 28.3284ZM35.1881 28.3284H35.2371V28.2514L35.1881 28.3284Z" fill="black"/>
</g>
<defs>
<clipPath id="clip0_2_2">
<rect width="64" height="64" fill="white"/>
</clipPath>
</defs>
</svg>
